<svg width="28" height="32" viewBox="0 0 28 32" fill="none" xmlns="http://www.w3.org/2000/svg">
<g filter="url(#filter0_d_1_123)">
<path fill-rule="evenodd" clip-rule="evenodd" d="M4 5C4 4.44772 4.44772 4 5 4H23C23.5523 4 24 4.44772 24 5V23C24 23.5523 23.5523 24 23 24H5C4.44772 24 4 23.5523 4 23V5ZM6 9.99406V6H10.0094V9.99406H6ZM6 11.9941V16.0001H10.0094V11.9941H6ZM6 18.0001V22H10.0094V18.0001H6ZM12.0094 22H16.0153V18.0001H12.0094V22ZM18.0153 22H22V18.0001H18.0153V22ZM22 16.0001V11.9941H18.0153V16.0001H22ZM22 9.99406V6H18.0153V9.99406H22ZM16.0153 6H12.0094V9.99406H16.0153V6ZM12.0094 16.0001V11.9941H16.0153V16.0001H12.0094Z" fill="white"/>
</g>
<defs>
<filter id="filter0_d_1_123" x="-4" y="0" width="36" height="36" filterUnits="userSpaceOnUse" color-interpolation-filters="sRGB">
<feFlood flood-opacity="0" result="BackgroundImageFix"/>
<feColorMatrix in="SourceAlpha" type="matrix" values="0 0 0 0 0 0 0 0 0 0 0 0 0 0 0 0 0 0 127 0" result="hardAlpha"/>
<feOffset dy="4"/>
<feGaussianBlur stdDeviation="2"/>
<feComposite in2="hardAlpha" operator="out"/>
<feColorMatrix type="matrix" values="0 0 0 0 0 0 0 0 0 0 0 0 0 0 0 0 0 0 0.25 0"/>
<feBlend mode="normal" in2="BackgroundImageFix" result="effect1_dropShadow_1_123"/>
<feBlend mode="normal" in="SourceGraphic" in2="effect1_dropShadow_1_123" result="shape"/>
</filter>
</defs>
</svg>
