<svg width="28" height="28" viewBox="0 0 28 28" fill="none" xmlns="http://www.w3.org/2000/svg">
<path d="M6 16C7.10457 16 8 15.1046 8 14C8 12.8954 7.10457 12 6 12C4.89543 12 4 12.8954 4 14C4 15.1046 4.89543 16 6 16Z" fill="white"/>
<path d="M16 14C16 15.1046 15.1046 16 14 16C12.8954 16 12 15.1046 12 14C12 12.8954 12.8954 12 14 12C15.1046 12 16 12.8954 16 14Z" fill="white"/>
<path d="M24 14C24 15.1046 23.1046 16 22 16C20.8954 16 20 15.1046 20 14C20 12.8954 20.8954 12 22 12C23.1046 12 24 12.8954 24 14Z" fill="white"/>
</svg>
