<svg width="600" height="600" viewBox="0 0 600 600" fill="none" xmlns="http://www.w3.org/2000/svg">
<rect width="600" height="600" fill="#F5F5F5"/>
<rect width="600" height="600" fill="white"/>
<rect x="170" y="170" width="260" height="260" rx="50" fill="url(#paint0_linear_0_1)"/>
<g filter="url(#filter0_d_0_1)">
<rect x="170" y="170" width="260" height="260" rx="50" fill="url(#paint1_linear_0_1)" shape-rendering="crispEdges"/>
</g>
<circle cx="300" cy="300" r="42.5" stroke="white" stroke-width="15"/>
<path d="M361 244C361 249.523 356.523 254 351 254C345.477 254 341 249.523 341 244C341 238.477 345.477 234 351 234C356.523 234 361 238.477 361 244Z" fill="white"/>
<path d="M213 257C213 232.147 233.147 212 258 212H343C367.853 212 388 232.147 388 257V342C388 366.853 367.853 387 343 387H258C233.147 387 213 366.853 213 342V257Z" stroke="white" stroke-width="15"/>
<defs>
<filter id="filter0_d_0_1" x="120" y="145" width="360" height="360" filterUnits="userSpaceOnUse" color-interpolation-filters="sRGB">
<feFlood flood-opacity="0" result="BackgroundImageFix"/>
<feColorMatrix in="SourceAlpha" type="matrix" values="0 0 0 0 0 0 0 0 0 0 0 0 0 0 0 0 0 0 127 0" result="hardAlpha"/>
<feOffset dy="25"/>
<feGaussianBlur stdDeviation="25"/>
<feComposite in2="hardAlpha" operator="out"/>
<feColorMatrix type="matrix" values="0 0 0 0 0 0 0 0 0 0 0 0 0 0 0 0 0 0 0.1 0"/>
<feBlend mode="normal" in2="BackgroundImageFix" result="effect1_dropShadow_0_1"/>
<feBlend mode="normal" in="SourceGraphic" in2="effect1_dropShadow_0_1" result="shape"/>
</filter>
<linearGradient id="paint0_linear_0_1" x1="141" y1="134" x2="238" y2="324" gradientUnits="userSpaceOnUse">
<stop stop-color="#D9D9D9"/>
<stop offset="0.0001" stop-color="#1F0CF8"/>
<stop offset="0.868122" stop-color="#ED1389"/>
</linearGradient>
<linearGradient id="paint1_linear_0_1" x1="179" y1="423" x2="285" y2="156" gradientUnits="userSpaceOnUse">
<stop stop-color="#FC2C46"/>
<stop offset="0.0001" stop-color="#FBAB48"/>
<stop offset="0.39864" stop-color="#FC3746"/>
<stop offset="0.85431" stop-color="#FC2C46" stop-opacity="0"/>
</linearGradient>
</defs>
</svg>
