<svg width="28" height="29" viewBox="0 0 28 29" fill="none" xmlns="http://www.w3.org/2000/svg">
<path fill-rule="evenodd" clip-rule="evenodd" d="M14.0001 9.58208C13.1868 9.58208 12.4545 9.08958 12.1477 8.33632C12.1487 8.33859 12.1481 8.33748 12.1457 8.33319C12.1314 8.30718 12.0528 8.16421 11.861 7.94544C11.6545 7.70995 11.3674 7.44541 11.0098 7.2079C10.3041 6.73922 9.37027 6.40177 8.22463 6.52614C6.55022 6.70791 5.51838 7.50062 4.8789 8.46602C4.19827 9.49354 3.93786 10.7682 4.01218 11.7853C4.09016 12.8522 4.21242 13.6772 4.77794 14.7395C5.37982 15.87 6.54749 17.3796 8.95047 19.5927C11.2204 21.6831 12.808 23.0434 13.8194 23.8629C13.9049 23.9321 13.9674 23.941 14.0001 23.941C14.0328 23.941 14.0953 23.9321 14.1808 23.8629C15.1922 23.0433 16.7798 21.6831 19.0497 19.5927C21.4527 17.3796 22.6203 15.87 23.2222 14.7395C23.7877 13.6772 23.91 12.8522 23.988 11.7853C24.062 10.7725 23.7993 9.49776 23.1155 8.46792C22.4721 7.49912 21.4384 6.7074 19.7747 6.52604C18.8061 6.42046 17.8632 6.73409 17.0697 7.2399C16.6783 7.48937 16.3578 7.76492 16.1291 8.00635C15.9175 8.22973 15.8473 8.35671 15.845 8.35551C15.8446 8.35524 15.8473 8.34896 15.8524 8.33632C15.5457 9.08958 14.8134 9.58208 14.0001 9.58208ZM12.6535 5.93995C13.3698 6.53011 13.8323 7.17001 14.0001 7.58208C14.1647 7.17777 14.6599 6.55902 15.391 5.98215C16.495 5.11118 18.1369 4.33567 19.9914 4.53782C24.5703 5.03694 26.1893 9.10422 25.9827 11.931C25.8084 14.3159 25.3629 16.4974 20.4046 21.0638C18.1132 23.1741 16.4928 24.5636 15.4399 25.4168C14.5773 26.1157 13.4229 26.1157 12.5603 25.4168C11.5074 24.5636 9.88702 23.1741 7.59559 21.0638C2.63729 16.4974 2.19179 14.3159 2.0175 11.931C1.81091 9.10422 3.41107 5.03695 8.00878 4.53782C10.0151 4.32001 11.6059 5.0768 12.6535 5.93995Z" fill="white"/>
</svg>
