<svg width="28" height="29" viewBox="0 0 28 29" fill="none" xmlns="http://www.w3.org/2000/svg">
<path fill-rule="evenodd" clip-rule="evenodd" d="M12.6706 4.57019C13.4603 3.73116 14.7937 3.73116 15.5834 4.57019L24.5358 14.0821C24.8849 14.4531 25.0794 14.9434 25.0794 15.4528V24.4451C25.0794 25.5497 24.1839 26.4451 23.0794 26.4451H18.0952C16.9907 26.4451 16.0952 25.5497 16.0952 24.4451V19.5157L16.0951 19.5129C16.0949 19.5051 16.0941 19.4887 16.0923 19.465C16.0887 19.4173 16.0809 19.342 16.0643 19.2489C16.0304 19.0581 15.9643 18.8175 15.8419 18.5878C15.7221 18.3634 15.5547 18.1597 15.313 18.0087C15.0746 17.8597 14.7068 17.7259 14.127 17.7259C12.7008 17.7259 12.2258 18.2613 12.0295 18.609C11.9096 18.8212 11.852 19.0429 11.8263 19.2187C11.8137 19.3046 11.8096 19.3734 11.8085 19.4159C11.8079 19.4364 11.8081 19.4501 11.8082 19.456L11.8095 19.4773V24.4451C11.8095 25.5497 10.9141 26.4451 9.80952 26.4451H5C3.89543 26.4451 3 25.5497 3 24.4451V15.6383C3 15.1289 3.19443 14.6386 3.5436 14.2676L12.6706 4.57019ZM17.0952 19.5086H18.0952V24.4451H23.0794V15.4528L14.127 5.94092L5 15.6383L5 24.4451L9.80952 24.4451V19.5301C9.80919 19.5207 9.80888 19.5101 9.80863 19.4983C9.8079 19.4631 9.80772 19.4172 9.8092 19.3622C9.81215 19.2525 9.82174 19.1039 9.84735 18.929C9.898 18.583 10.015 18.109 10.288 17.6255C10.8774 16.5818 12.0611 15.7259 14.127 15.7259C15.0313 15.7259 15.7766 15.9399 16.373 16.3127C16.9662 16.6834 17.3552 17.1755 17.6066 17.6467C17.8551 18.1127 17.9746 18.5678 18.0334 18.8988C18.0632 19.0665 18.0786 19.2087 18.0866 19.3131C18.0905 19.3655 18.0927 19.4089 18.0939 19.4418C18.0945 19.4583 18.0948 19.4723 18.095 19.4834L18.0952 19.4981L18.0952 19.5039L18.0952 19.5064L18.0952 19.5076C18.0952 19.5076 18.0952 19.5086 17.0952 19.5086Z" fill="white"/>
</svg>
