<svg width="28" height="29" viewBox="0 0 28 29" fill="none" xmlns="http://www.w3.org/2000/svg">
<path fill-rule="evenodd" clip-rule="evenodd" d="M18.0457 19.9418C16.3523 21.3228 14.1901 22.151 11.8346 22.151C6.40308 22.151 2 17.7479 2 12.3164C2 6.88492 6.40308 2.48184 11.8346 2.48184C17.266 2.48184 21.6691 6.88492 21.6691 12.3164C21.6691 14.672 20.841 16.8341 19.4599 18.5275L24.7434 23.8111C25.134 24.2016 25.134 24.8348 24.7434 25.2253C24.3529 25.6158 23.7198 25.6158 23.3292 25.2253L18.0457 19.9418ZM19.6691 12.3164C19.6691 16.6433 16.1615 20.151 11.8346 20.151C7.50765 20.151 4 16.6433 4 12.3164C4 7.98949 7.50765 4.48184 11.8346 4.48184C16.1615 4.48184 19.6691 7.98949 19.6691 12.3164Z" fill="white"/>
</svg>
