<svg width="16" height="16" viewBox="0 0 16 16" fill="none" xmlns="http://www.w3.org/2000/svg">
<path fill-rule="evenodd" clip-rule="evenodd" d="M6.85984 0.275664C6.48099 -0.0918881 5.86676 -0.0918881 5.48791 0.275664C5.10907 0.643216 5.10907 1.23914 5.48791 1.60669L6.32353 2.41739H4.99998C2.79085 2.41739 0.999985 4.20825 0.999985 6.41739V12C0.999985 14.2091 2.79085 16 4.99998 16H11C13.2091 16 15 14.2091 15 12V6.41739C15 4.20826 13.2091 2.41739 11 2.41739H9.67639L10.512 1.60669C10.8909 1.23914 10.8909 0.643216 10.512 0.275664C10.1332 -0.0918881 9.51893 -0.0918881 9.14009 0.275664L7.99996 1.3818L6.85984 0.275664ZM6.8154 9.81681L4.09897 10.5568C3.56611 10.702 3.01646 10.3877 2.87129 9.85484C2.72612 9.32197 3.04042 8.77232 3.57328 8.62716L6.92113 7.71512C7.86965 7.45672 8.80437 8.1651 8.8153 9.14501L11.2944 8.24545C11.8136 8.05706 12.3871 8.32521 12.5755 8.84438C12.7639 9.36354 12.4958 9.93712 11.9766 10.1255L8.82704 11.2683C7.84894 11.6233 6.8154 10.8988 6.8154 9.8583V9.81681Z" fill="white"/>
</svg>
