<svg width="28" height="29" viewBox="0 0 28 29" fill="none" xmlns="http://www.w3.org/2000/svg">
<path d="M13.0753 13.3747C12.418 13.0155 11.6137 13.4799 11.5961 14.2287L11.4743 19.4008C11.4559 20.1808 12.2982 20.6805 12.974 20.2903L17.6359 17.5988C18.3116 17.2086 18.3001 16.2293 17.6153 15.8552L13.0753 13.3747Z" fill="#8E8E8E"/>
<path fill-rule="evenodd" clip-rule="evenodd" d="M10 3.48184C6.13401 3.48184 3 6.61585 3 10.4818V18.4818C3 22.3478 6.13401 25.4818 10 25.4818H18C21.866 25.4818 25 22.3478 25 18.4818V10.4818C25 6.61585 21.866 3.48184 18 3.48184H10ZM18 5.48184H17.2392L17.8321 6.47001L19.0704 8.59296H22.6309C21.8857 6.76793 20.0931 5.48184 18 5.48184ZM10.8488 5.48184H14.9069L16.1076 7.48309L16.755 8.59296H12.6829L11.5464 6.64461L10.8488 5.48184ZM5.36909 8.59296C5.94518 7.18204 7.14733 6.09324 8.63033 5.67176L9.8219 7.65772L10.3675 8.59296H5.36909ZM5 18.4818V10.593H11.5341L11.5449 10.6114L11.5765 10.593H23V18.4818C23 21.2433 20.7614 23.4818 18 23.4818H10C7.23858 23.4818 5 21.2433 5 18.4818Z" fill="#8E8E8E"/>
</svg>
