<svg width="28" height="28" viewBox="0 0 28 28" fill="none" xmlns="http://www.w3.org/2000/svg">
<path d="M7.23258 4.67469L8.63151 7.11113H4.73975C5.31093 6.07368 6.18053 5.2227 7.23258 4.67469ZM11.8468 11.1111H24V18C24 21.3137 21.3137 24 18 24H9.99995C6.68625 24 3.99995 21.3137 3.99995 18V11.1111H10.9597L11.185 11.4972L11.8468 11.1111ZM18.6958 5.48434L18.694 5.48125L18.6903 5.47498L18.6885 5.47181L17.8155 4H18C20.2655 4 22.2394 5.25621 23.2603 7.11113H19.6448L18.6958 5.48434ZM12.4136 5.66486L11.4577 4H13.1648L15.0101 7.11113H13.2572L12.4136 5.66486ZM13.5547 12.0153C12.2401 11.297 10.6316 12.2257 10.5963 13.7233L10.4745 18.8954C10.4378 20.4556 12.1224 21.4548 13.474 20.6745L18.1358 17.983C19.4874 17.2027 19.4643 15.2441 18.0948 14.4958L13.5547 12.0153Z" fill="white" stroke="white" stroke-width="2"/>
</svg>
